Coordinates
version=1
nRows=7
nColumns=42
inDegrees=yes

Units are S.I. units (second, meters, Newtons, ...)
If the header above contains a line with 'inDegrees', this indicates whether rotational values are in degrees (yes) or radians (no).

endheader
time	pelvis_tilt	pelvis_list	pelvis_rotation	pelvis_tx	pelvis_ty	pelvis_tz	hip_flexion_r	hip_adduction_r	hip_rotation_r	knee_angle_r	knee_adduction_r	knee_angle_r_beta	ankle_angle_r	subtalar_angle_r	mtp_angle_r	hip_flexion_l	hip_adduction_l	hip_rotation_l	knee_angle_l	knee_adduction_l	knee_angle_l_beta	ankle_angle_l	subtalar_angle_l	mtp_angle_l	lumbar_extension	lumbar_bending	lumbar_rotation	arm_flex_r	arm_add_r	arm_rot_r	elbow_flex_r	pro_sup_r	wrist_flex_r	wrist_dev_r	arm_flex_l	arm_add_l	arm_rot_l	elbow_flex_l	pro_sup_l	wrist_flex_l	wrist_dev_l
      1.20000000	     14.53304850	      1.05389536	     -8.33243920	      0.35134755	      0.98186187	     -0.09655734	     -9.16334741	     -3.20110084	     -4.03347555	     63.72504351	     -3.82478896	      1.11221183	      3.20691464	     -4.62260896	     -7.56738829	     -2.76837253	      5.53479871	     -8.42393719	     18.12025656	      0.84409990	      0.31625814	      5.83798095	      4.74710275	     -7.56738829	    -31.97059895	     -1.89850369	      7.85387898	     -2.04562815	    -23.13434578	     -3.38633900	     72.61705999	     90.00000001	      0.00000000	      0.00000000	     -4.65230016	    -19.59291737	      4.17027283	     55.78416276	     90.00000001	      0.00000000	      0.00000000
      1.21000000	     14.38504283	      0.85681003	     -8.07038605	      0.36433245	      0.98393000	     -0.09669939	     -7.34178805	     -2.85245743	     -4.33793105	     63.80286746	     -3.96011816	      1.11357011	      4.30013616	     -4.80261955	     -7.56628626	     -4.01174520	      5.41184535	     -8.23897339	     17.06933004	      0.90131769	      0.29791601	      6.04621140	      5.21520722	     -7.56628626	    -31.85054528	     -1.47315290	      7.66177253	     -2.35812688	    -23.25070734	     -3.58771968	     72.68291813	     90.00000001	      0.00000000	      0.00000000	     -4.11105741	    -19.72671362	      3.97466694	     56.45899110	     90.00000001	      0.00000000	      0.00000000
      1.22000000	     14.28779300	      0.74548562	     -7.77078847	      0.37735338	      0.98578916	     -0.09692051	     -5.63398641	     -2.62318438	     -4.63116578	     63.50542611	     -3.98315285	      1.10837878	      5.40637881	     -4.80519307	     -7.56508390	     -5.36740221	      5.40324088	     -7.97128250	     15.84527213	      0.93983740	      0.27655217	      6.21347500	      5.85295271	     -7.56508390	    -31.75444246	     -1.11749186	      7.41153484	     -2.67516742	    -23.32907928	     -3.88616247	     72.77134627	     90.00000001	      0.00000000	      0.00000000	     -3.55985920	    -19.89813826	      3.77719132	     57.19957562	     90.00000001	      0.00000000	      0.00000000
      1.23000000	     14.16440181	      0.62802597	     -7.42839863	      0.39030273	      0.98732787	     -0.09716000	     -3.96247566	     -2.39487533	     -4.84502843	     62.85129588	     -3.85346686	      1.09696205	      6.33459919	     -4.76908348	     -7.56399720	     -6.66282290	      5.40153709	     -7.86141817	     14.65525167	      0.84563493	      0.25578239	      6.35122906	      6.49516159	     -7.56399720	    -31.63352419	     -0.74543062	      7.13755246	     -2.97625787	    -23.40861024	     -4.18597916	     72.84349436	     90.00000001	      0.00000000	      0.00000000	     -3.00390840	    -20.07769346	      3.62473523	     57.96287675	     90.00000001	      0.00000000	      0.00000000
      1.24000000	     14.38073575	      0.55859877	     -7.07298889	      0.40344645	      0.98910330	     -0.09733842	     -2.80952228	     -2.29204565	     -4.96103308	     61.74060587	     -3.54856194	      1.07757685	      7.11383832	     -4.60687592	     -7.56176075	     -8.45394009	      5.45000984	     -7.71825566	     13.19857378	      0.85422707	      0.23035857	      6.42170280	      7.52679667	     -7.56176075	    -31.86140691	     -0.46977753	      6.85480762	     -3.32023366	    -23.43295569	     -4.59647597	     72.98330716	     90.00000001	      0.00000000	      0.00000000	     -2.40555798	    -20.30984541	      3.55203230	     58.78959556	     90.00000001	      0.00000000	      0.00000000
      1.25000000	     14.28171804	      0.44857145	     -6.73947301	      0.41633016	      0.99004358	     -0.09742251	     -1.30074643	     -2.06549268	     -4.80803984	     60.50343145	     -3.09316500	      1.05598409	      7.67387941	     -4.91409488	     -7.55992950	     -9.75296810	      5.40649587	     -7.70546169	     12.04457476	      0.80483988	      0.21021749	      6.66631950	      8.38741422	     -7.55992950	    -31.76698072	     -0.13958144	      6.62395800	     -3.62263142	    -23.47759612	     -4.95204558	     73.05255441	     90.00000001	      0.00000000	      0.00000000	     -1.81261981	    -20.53665447	      3.48543000	     59.59904077	     90.00000001	      0.00000000	      0.00000000
      1.26000000	     14.27616022	      0.32739660	     -6.43264632	      0.42923917	      0.99080451	     -0.09736714	      0.00581298	     -1.83512144	     -4.33755960	     58.97282440	     -2.37899856	      1.02926996	      7.93782349	     -5.63490881	     -7.55783142	    -11.16090321	      5.34320791	     -7.72633121	     10.88561906	      0.77418863	      0.18998989	      6.93120024	      9.31291708	     -7.55783142	    -31.77142947	      0.15967533	      6.44768440	     -3.93382720	    -23.51022292	     -5.34544872	     73.14018208	     90.00000001	      0.00000000	      0.00000000	     -1.16984578	    -20.78370307	      3.49228130	     60.42238306	     90.00000001	      0.00000000	      0.00000000
